 <svg
          width="17"
          height="17"
          viewBox="0 0 17 17"
          fill="none"
          xmlns="http://www.w3.org/2000/svg"
        >
          <path
            d="M12.75 5.66665H13.4584C14.2098 5.66665 14.9305 5.96516 15.4618 6.49651C15.9932 7.02786 16.2917 7.74853 16.2917 8.49998C16.2917 9.25143 15.9932 9.9721 15.4618 10.5034C14.9305 11.0348 14.2098 11.3333 13.4584 11.3333H12.75M12.75 5.66665H1.41669V12.0416C1.41669 12.7931 1.7152 13.5138 2.24655 14.0451C2.7779 14.5765 3.49857 14.875 4.25002 14.875H9.91669C10.6681 14.875 11.3888 14.5765 11.9202 14.0451C12.4515 13.5138 12.75 12.7931 12.75 12.0416V5.66665ZM4.25002 0.708313V2.83331M7.08335 0.708313V2.83331M9.91669 0.708313V2.83331"
            stroke="#6F4E37"
            strokeLinecap="round"
            strokeLinejoin="round"
          />
</svg>