<svg width="23" height="23" viewBox="0 0 23 23" fill="none" xmlns="http://www.w3.org/2000/svg">
<g clip-path="url(#clip0_60_890)">
<path d="M21.41 11.1221C21.4116 10.904 21.3676 10.688 21.281 10.4878C21.1944 10.2876 21.0671 10.1076 20.9072 9.95925L11.1958 1.00211L1.48434 9.95925C1.32441 10.1076 1.1971 10.2876 1.11053 10.4878C1.02395 10.688 0.980006 10.904 0.981481 11.1221V19.8592C0.981481 20.276 1.14704 20.6758 1.44174 20.9704C1.73644 21.265 2.13615 21.4307 2.55291 21.4307H19.8386C20.2553 21.4307 20.6551 21.265 20.9497 20.9704C21.2445 20.6758 21.41 20.276 21.41 19.8592V11.1221Z" fill="white"/>
<path d="M21.41 11.1221C21.4116 10.904 21.3676 10.688 21.281 10.4878C21.1944 10.2876 21.0671 10.1076 20.9072 9.95925L11.1958 1.00211L1.48434 9.95925C1.32441 10.1076 1.1971 10.2876 1.11053 10.4878C1.02395 10.688 0.980006 10.904 0.981481 11.1221V19.8592C0.981481 20.276 1.14704 20.6758 1.44174 20.9704C1.73644 21.265 2.13615 21.4307 2.55291 21.4307H19.8386C20.2553 21.4307 20.6551 21.265 20.9497 20.9704C21.2445 20.6758 21.41 20.276 21.41 19.8592V11.1221Z" stroke="#4147D5" stroke-width="1.33615" stroke-linecap="round" stroke-linejoin="round"/>
<path d="M11.1958 21.4307V15.145" stroke="#4147D5" stroke-width="1.33615" stroke-linecap="round" stroke-linejoin="round"/>
</g>
<defs>
<clipPath id="clip0_60_890">
<rect width="22" height="22" fill="white" transform="translate(0.195801 0.2164)"/>
</clipPath>
</defs>
</svg>
