<svg width="24" height="20" viewBox="0 0 24 20" fill="none" xmlns="http://www.w3.org/2000/svg">
<path d="M11.8003 4.33847C10.1837 3.14173 7.75563 1.04907 0.800293 1.04907V16.0331C7.75563 16.0331 10.1837 18.128 11.8003 19.3225C13.4169 18.1258 15.845 16.0331 22.8003 16.0331V1.04907C15.845 1.04907 13.4169 3.14173 11.8003 4.33847Z" fill="white"/>
<path d="M11.8003 4.33847C10.1837 3.14173 7.75563 1.04907 0.800293 1.04907V16.0331C7.75563 16.0331 10.1837 18.1258 11.8003 19.3225V4.33847Z" fill="white" stroke="#4147D5" stroke-width="1.34" stroke-linecap="round" stroke-linejoin="round"/>
<path d="M11.8005 4.33847C13.4193 3.14173 15.8452 1.04907 22.8005 1.04907V16.0331C15.8452 16.0331 13.4193 18.1258 11.8005 19.3225V4.33847Z" fill="white" stroke="#4147D5" stroke-width="1.34" stroke-linecap="round" stroke-linejoin="round"/>
</svg>
