<svg width="151" height="150" viewBox="0 0 151 150" fill="none" xmlns="http://www.w3.org/2000/svg">
  <path d="M48.1961 135.509L4.31543 146.479L15.2856 113.568V14.8369C15.2856 11.9274 16.4414 9.1371 18.4986 7.07978C20.556 5.02248 23.3463 3.8667 26.2558 3.8667H135.957C138.867 3.8667 141.658 5.02248 143.714 7.07978C145.771 9.1371 146.928 11.9274 146.928 14.8369V124.539C146.928 127.448 145.771 130.239 143.714 132.296C141.658 134.352 138.867 135.509 135.957 135.509H48.1961Z"/>
  <path d="M48.1961 135.509L4.31543 146.479L15.2856 113.568V14.8369C15.2856 11.9274 16.4414 9.1371 18.4986 7.07978C20.556 5.02248 23.3463 3.8667 26.2558 3.8667H135.957C138.867 3.8667 141.658 5.02248 143.714 7.07978C145.771 9.1371 146.928 11.9274 146.928 14.8369V124.539C146.928 127.448 145.771 130.239 143.714 132.296C141.658 134.352 138.867 135.509 135.957 135.509H48.1961Z" stroke="#D8D8D8" stroke-width="4" stroke-linecap="round" stroke-linejoin="round"/>
  <path d="M81.1069 31.2921V69.6877" stroke="#D8D8D8" stroke-width="7" stroke-linecap="round" stroke-linejoin="round"/>
  <path d="M81.1068 99.8557C79.5921 99.8557 78.3643 98.6278 78.3643 97.1131C78.3643 95.5985 79.5921 94.3706 81.1068 94.3706" stroke="#D8D8D8" stroke-width="7" stroke-linecap="round" stroke-linejoin="round"/>
  <path d="M81.1069 99.8557C82.6216 99.8557 83.8495 98.6278 83.8495 97.1131C83.8495 95.5985 82.6216 94.3706 81.1069 94.3706" stroke="#D8D8D8" stroke-width="7" stroke-linecap="round" stroke-linejoin="round"/>
</svg>
