<svg width="25" height="24" viewBox="0 0 25 24" fill="none" xmlns="http://www.w3.org/2000/svg">
<path d="M12.4759 13.7773C14.8125 13.7773 16.7067 11.8831 16.7067 9.54656C16.7067 7.20998 14.8125 5.31579 12.4759 5.31579C10.1393 5.31579 8.24512 7.20998 8.24512 9.54656C8.24512 11.8831 10.1393 13.7773 12.4759 13.7773Z" fill="white"/>
<path d="M19.7042 20.3767C17.771 22.0634 15.2427 23.085 12.4756 23.085C9.7086 23.085 7.18019 22.0634 5.24707 20.3767C6.73275 17.9414 9.41433 16.3158 12.4756 16.3158C15.5369 16.3158 18.2185 17.9414 19.7042 20.3767Z" fill="white"/>
<path fill-rule="evenodd" clip-rule="evenodd" d="M5.24726 20.3767C6.73293 17.9414 9.41453 16.3158 12.4758 16.3158C15.5371 16.3158 18.2187 17.9414 19.7044 20.3767C22.0155 18.3601 23.4758 15.3931 23.4758 12.085C23.4758 6.00989 18.551 1.08502 12.4758 1.08502C6.4007 1.08502 1.47583 6.00989 1.47583 12.085C1.47583 15.3931 2.93612 18.3601 5.24726 20.3767ZM12.4758 13.7773C14.8124 13.7773 16.7066 11.8831 16.7066 9.54656C16.7066 7.20997 14.8124 5.31579 12.4758 5.31579C10.1392 5.31579 8.24506 7.20997 8.24506 9.54656C8.24506 11.8831 10.1392 13.7773 12.4758 13.7773Z" fill="white"/>
<path d="M12.4759 13.7773C14.8125 13.7773 16.7067 11.8831 16.7067 9.54656C16.7067 7.20998 14.8125 5.31579 12.4759 5.31579C10.1393 5.31579 8.24512 7.20998 8.24512 9.54656C8.24512 11.8831 10.1393 13.7773 12.4759 13.7773Z" stroke="#4147D5" stroke-width="1.5" stroke-linecap="round" stroke-linejoin="round"/>
<path d="M5.24951 20.3773C6.00469 19.1377 7.06605 18.1132 8.33156 17.4024C9.59707 16.6915 11.0242 16.3181 12.4757 16.3181C13.9272 16.3181 15.3543 16.6915 16.6198 17.4024C17.8853 18.1132 18.9466 19.1377 19.7019 20.3773" stroke="#4147D5" stroke-width="1.5" stroke-linecap="round" stroke-linejoin="round"/>
<path d="M12.4758 23.085C18.551 23.085 23.4758 18.1602 23.4758 12.085C23.4758 6.00989 18.551 1.08502 12.4758 1.08502C6.4007 1.08502 1.47583 6.00989 1.47583 12.085C1.47583 18.1602 6.4007 23.085 12.4758 23.085Z" stroke="#4147D5" stroke-width="1.5" stroke-linecap="round" stroke-linejoin="round"/>
</svg>
