<svg width="23" height="28" viewBox="0 0 23 28" fill="none" xmlns="http://www.w3.org/2000/svg">
<g clip-path="url(#clip0_60_910)">
<path d="M2.11792 7.46279C2.11792 6.65691 2.69853 6.00361 3.41474 6.00361H18.9767C19.693 6.00361 20.2736 6.65691 20.2736 7.46279V20.4232C20.2736 20.9759 19.9961 21.4812 19.5567 21.7284L11.1958 26.4322L2.83479 21.7284C2.39543 21.4812 2.11792 20.9759 2.11792 20.4232V7.46279Z" fill="white"/>
<path d="M2.11792 7.46279C2.11792 6.65691 2.69853 6.00361 3.41474 6.00361H18.9767C19.693 6.00361 20.2736 6.65691 20.2736 7.46279V20.4232C20.2736 20.9759 19.9961 21.4812 19.5567 21.7284L11.1958 26.4322L2.83479 21.7284C2.39543 21.4812 2.11792 20.9759 2.11792 20.4232V7.46279Z" stroke="#4147D5" stroke-width="1.34" stroke-linecap="round" stroke-linejoin="round"/>
<path d="M13.3871 19.8658H9.00952V12.5699H13.3871" stroke="#4147D5" stroke-width="1.34" stroke-linecap="round" stroke-linejoin="round"/>
<path d="M9.00952 16.2181H13.3871" stroke="#4147D5" stroke-width="1.34" stroke-linecap="round" stroke-linejoin="round"/>
</g>
<path d="M5.20068 2.96974V7.46607C5.20068 8.29381 5.8717 8.96483 6.69945 8.96483H15.6921C16.5199 8.96483 17.1909 8.29381 17.1909 7.46607V2.96974L14.1933 4.46852L11.1957 1.47098L8.19818 4.46852L5.20068 2.96974Z" fill="white"/>
<path d="M5.20068 2.96974V7.46607C5.20068 8.29381 5.8717 8.96483 6.69945 8.96483H15.6921C16.5199 8.96483 17.1909 8.29381 17.1909 7.46607V2.96974L14.1933 4.46852L11.1957 1.47098L8.19818 4.46852L5.20068 2.96974Z" fill="white"/>
<path d="M5.20068 2.96974V7.46607C5.20068 8.29381 5.8717 8.96483 6.69945 8.96483H15.6921C16.5198 8.96483 17.1909 8.29381 17.1909 7.46607V2.96974L14.1933 4.46852L11.1957 1.47098L8.19818 4.46852L5.20068 2.96974Z" stroke="#4147D5" stroke-width="1.5" stroke-linecap="round" stroke-linejoin="round"/>
<defs>
<clipPath id="clip0_60_910">
<rect width="22" height="22" fill="white" transform="translate(0.195801 5.2179)"/>
</clipPath>
</defs>
</svg>
