<svg width="23" height="23" viewBox="0 0 23 23" fill="none" xmlns="http://www.w3.org/2000/svg">
<path d="M9.39885 1.67313H1.70654V17.0577H20.1681C20.5761 17.0577 20.9674 16.8957 21.2559 16.6071C21.5445 16.3186 21.7065 15.9273 21.7065 15.5193V1.67313H14.0142C13.4022 1.67313 12.8152 1.91626 12.3825 2.34903C11.9497 2.78181 11.7065 3.36878 11.7065 3.98082C11.7065 3.36878 11.4634 2.78181 11.0306 2.34903C10.5979 1.91626 10.0109 1.67313 9.39885 1.67313Z" fill="white"/>
<path d="M16.322 20.1347C17.342 20.1347 18.3203 19.7294 19.0416 19.0081C19.7629 18.2869 20.1681 17.3086 20.1681 16.2885C20.1681 15.2684 19.7629 14.2902 19.0416 13.5689C18.3203 12.8476 17.342 12.4424 16.322 12.4424C15.3019 12.4424 14.3236 12.8476 13.6023 13.5689C12.881 14.2902 12.4758 15.2684 12.4758 16.2885C12.4758 17.3086 12.881 18.2869 13.6023 19.0081C14.3236 19.7294 15.3019 20.1347 16.322 20.1347Z" fill="white"/>
<path d="M16.322 20.1347C17.342 20.1347 18.3203 19.7294 19.0416 19.0081C19.7629 18.2869 20.1681 17.3086 20.1681 16.2885C20.1681 15.2684 19.7629 14.2902 19.0416 13.5689C18.3203 12.8476 17.342 12.4424 16.322 12.4424C15.3019 12.4424 14.3236 12.8476 13.6023 13.5689C12.881 14.2902 12.4758 15.2684 12.4758 16.2885C12.4758 17.3086 12.881 18.2869 13.6023 19.0081C14.3236 19.7294 15.3019 20.1347 16.322 20.1347Z" fill="white" stroke="#4147D5" stroke-width="1.5" stroke-linecap="round" stroke-linejoin="round"/>
<path d="M21.7065 21.6731L19.0449 19.0116Z" fill="white"/>
<path d="M21.7065 21.6731L19.0449 19.0116" stroke="#4147D5" stroke-width="1.5" stroke-linecap="round" stroke-linejoin="round"/>
<path d="M11.7065 3.98082C11.7065 3.36878 11.4634 2.78181 11.0306 2.34903C10.5979 1.91626 10.0109 1.67313 9.39885 1.67313H1.70654V17.0577H9.39885" fill="white"/>
<path d="M11.7065 3.98082C11.7065 3.36878 11.4634 2.78181 11.0306 2.34903C10.5979 1.91626 10.0109 1.67313 9.39885 1.67313H1.70654V17.0577H9.39885" stroke="#4147D5" stroke-width="1.5" stroke-linecap="round" stroke-linejoin="round"/>
<path d="M21.7065 12.4424V1.67313H14.0142C13.4022 1.67313 12.8152 1.91626 12.3825 2.34903C11.9497 2.78181 11.7065 3.36878 11.7065 3.98082" fill="white"/>
<path d="M21.7065 12.4424V1.67313H14.0142C13.4022 1.67313 12.8152 1.91626 12.3825 2.34903C11.9497 2.78181 11.7065 3.36878 11.7065 3.98082" stroke="#4147D5" stroke-width="1.5" stroke-linecap="round" stroke-linejoin="round"/>
<path d="M11.7065 3.98082V10.9039Z" fill="white"/>
<path d="M11.7065 3.98082V10.9039" stroke="#4147D5" stroke-width="1.5" stroke-linecap="round" stroke-linejoin="round"/>
</svg>
