<svg width="22" height="25" viewBox="0 0 22 25" fill="none" xmlns="http://www.w3.org/2000/svg">
<path d="M0.0224609 1.87898C0.0224609 0.935366 0.702306 0.17041 1.54092 0.17041H19.7626C20.6013 0.17041 21.2812 0.935366 21.2812 1.87898V17.0545C21.2812 17.7016 20.9562 18.2934 20.4418 18.5828L10.6518 24.0905L0.861853 18.5828C0.347406 18.2934 0.0224609 17.7016 0.0224609 17.0545V1.87898Z" fill="#E69C7F"/>
<path d="M0.0224609 1.87898C0.0224609 0.935366 0.702306 0.17041 1.54092 0.17041H19.7626C20.6013 0.17041 21.2812 0.935366 21.2812 1.87898V17.0545C21.2812 17.7016 20.9562 18.2934 20.4418 18.5828L10.6518 24.0905L0.861853 18.5828C0.347406 18.2934 0.0224609 17.7016 0.0224609 17.0545V1.87898Z" fill="#E69C7F"/>
</svg>
