<svg width="22" height="25" viewBox="0 0 22 25" fill="none" xmlns="http://www.w3.org/2000/svg">
<path d="M0.0224609 1.88435C0.0224609 0.940738 0.702306 0.175781 1.54092 0.175781H19.7626C20.6013 0.175781 21.2812 0.940738 21.2812 1.88435V17.0599C21.2812 17.707 20.9562 18.2987 20.4418 18.5882L10.6518 24.0958L0.861853 18.5882C0.347406 18.2987 0.0224609 17.707 0.0224609 17.0599V1.88435Z" fill="#A5FBFF"/>
<path d="M0.0224609 1.88435C0.0224609 0.940738 0.702306 0.175781 1.54092 0.175781H19.7626C20.6013 0.175781 21.2812 0.940738 21.2812 1.88435V17.0599C21.2812 17.707 20.9562 18.2987 20.4418 18.5882L10.6518 24.0958L0.861853 18.5882C0.347406 18.2987 0.0224609 17.707 0.0224609 17.0599V1.88435Z" fill="#A5FBFF"/>
</svg>
