<svg width="22" height="25" viewBox="0 0 22 25" fill="none" xmlns="http://www.w3.org/2000/svg">
<path d="M0.0224609 2.62459C0.0224609 1.68097 0.702306 0.916016 1.54092 0.916016H19.7626C20.6013 0.916016 21.2812 1.68097 21.2812 2.62459V17.8001C21.2812 18.4472 20.9562 19.039 20.4418 19.3284L10.6518 24.8361L0.861853 19.3284C0.347406 19.039 0.0224609 18.4472 0.0224609 17.8001V2.62459Z" fill="#FFF834"/>
<path d="M0.0224609 2.62459C0.0224609 1.68097 0.702306 0.916016 1.54092 0.916016H19.7626C20.6013 0.916016 21.2812 1.68097 21.2812 2.62459V17.8001C21.2812 18.4472 20.9562 19.039 20.4418 19.3284L10.6518 24.8361L0.861853 19.3284C0.347406 19.039 0.0224609 18.4472 0.0224609 17.8001V2.62459Z" fill="#FFF834"/>
</svg>
