<svg width="22" height="24" viewBox="0 0 22 24" fill="none" xmlns="http://www.w3.org/2000/svg">
<path d="M0.0224609 1.77889C0.0224609 0.835269 0.702306 0.0703125 1.54092 0.0703125H19.7626C20.6013 0.0703125 21.2812 0.835269 21.2812 1.77889V16.9544C21.2812 17.6015 20.9562 18.1933 20.4418 18.4827L10.6518 23.9904L0.861853 18.4827C0.347406 18.1933 0.0224609 17.6015 0.0224609 16.9544V1.77889Z" fill="#B6D0D1"/>
<path d="M0.0224609 1.77889C0.0224609 0.835269 0.702306 0.0703125 1.54092 0.0703125H19.7626C20.6013 0.0703125 21.2812 0.835269 21.2812 1.77889V16.9544C21.2812 17.6015 20.9562 18.1933 20.4418 18.4827L10.6518 23.9904L0.861853 18.4827C0.347406 18.1933 0.0224609 17.6015 0.0224609 16.9544V1.77889Z" fill="#B6D0D1"/>
</svg>
